Coordinates
nRows=17
nColumns=24

# SIMM Motion File Header:
name Coordinates
datacolumns 24
datarows 17
otherdata 1
range 0.38500000000000001000 0.40100000000000002000

Units are S.I. units (second, meters, Newtons, ...)
Angles are in degrees.

endheader
time	pelvis_tx	pelvis_ty	pelvis_tz	pelvis_tilt	pelvis_list	pelvis_rotation	hip_flexion_r	hip_adduction_r	hip_rotation_r	knee_angle_r	ankle_angle_r	subtalar_angle_r	mtp_angle_r	hip_flexion_l	hip_adduction_l	hip_rotation_l	knee_angle_l	ankle_angle_l	subtalar_angle_l	mtp_angle_l	lumbar_extension	lumbar_bending	lumbar_rotation
      0.38500000000000001000	      0.25751711686960510000	      0.84194951832668352000	     -0.26927254498916475000	     -3.84003355925157970000	      2.37160712392751670000	     -4.06166363688227520000	      3.46027943726866250000	     -7.14782042622047520000	      0.67609093084396354000	    -48.69446055423806300000	    -21.72989105040047500000	      0.00000000000000000000	      0.00000000000000000000	      9.24169439765132240000	      5.64241702096457230000	     -1.66568901967446980000	     -1.86642588035961920000	     -5.88868172982158540000	      0.00000000000000000000	      0.00000000000000000000	      7.52005338278029620000	     -4.78089291450303030000	     13.90392870610769200000
      0.38600000000000001000	      0.25796608418192890000	      0.84194417089935325000	     -0.26941239808979489000	     -3.83372493611087650000	      2.37863900415787640000	     -4.06547767075196550000	      3.56964947722643620000	     -7.17760989150055020000	      0.71076034516629683000	    -48.89298322204301400000	    -21.89950910599342000000	     -0.00000000000000000038	      0.00000000000000000054	      9.19839043879145100000	      5.66026145131230510000	     -1.69100381253898990000	     -1.85487209973420760000	     -5.86333833624139360000	      0.00000000000000000466	     -0.00000000000000002057	      7.51158039223136330000	     -4.78619374660030590000	     13.91225886474790300000
      0.38700000000000001000	      0.25841438491299307000	      0.84193858074888384000	     -0.26955153174636592000	     -3.82734594600096130000	      2.38565027578537190000	     -4.06942463845402800000	      3.67912188432048870000	     -7.20720342746097660000	      0.74557990930595341000	    -49.09138749578338700000	    -22.06773499072507900000	     -0.00000000000000000065	      0.00000000000000000073	      9.15498327782509060000	      5.67805208680544200000	     -1.71621368579336740000	     -1.84309051198643430000	     -5.83808707133504430000	      0.00000000000000000760	     -0.00000000000000003888	      7.50312094676304840000	     -4.79144725143696790000	     13.92060544677564800000
      0.38800000000000001000	      0.25886201486309351000	      0.84193276799022199000	     -0.26968992295892369000	     -3.82088914636549640000	      2.39263873998335660000	     -4.07351227067690580000	      3.78869246701326650000	     -7.23658911303348250000	      0.78055716235514883000	    -49.28966341902280800000	    -22.23446496027177900000	     -0.00000000000000000093	     -0.00000000000000000007	      9.11145721267353360000	      5.69578869084182140000	     -1.74130297971841740000	     -1.83107418907630760000	     -5.81284666149381570000	      0.00000000000000001021	     -0.00000000000000005411	      7.49466474441703130000	     -4.79665165808307050000	     13.92896825378999800000
      0.38900000000000001000	      0.25930896307741647000	      0.84192675025845376000	     -0.26982753987176072000	     -3.81435009236552820000	      2.39960218491141970000	     -4.07775240961811480000	      3.89836485494076170000	     -7.26575263842509770000	      0.81570444227204986000	    -49.48780439323881800000	    -22.39957982316161600000	     -0.00000000000000000050	     -0.00000000000000000326	      9.06779911032108110000	      5.71346912813469570000	     -1.76626196970021270000	     -1.81881061614572630000	     -5.78761736758287440000	      0.00000000000000001381	     -0.00000000000000006041	      7.48620432657206790000	     -4.80180463502137660000	     13.93734980034444400000
      0.39000000000000001000	      0.25975521872260376000	      0.84192054489820611000	     -0.26996435136734570000	     -3.80772447645503930000	      2.40653839213635080000	     -4.08215666540815560000	      4.00814268703258400000	     -7.29467979911716390000	      0.85103379400935064000	    -49.68580371221106200000	    -22.56296137280601100000	     -0.00000000000000000058	     -0.00000000000000000662	      9.02399619670843660000	      5.73109125240006990000	     -1.79108108522576550000	     -1.80628756845613770000	     -5.76240020879252410000	      0.00000000000000002735	     -0.00000000000000012080	      7.47773241125277370000	     -4.80690379925004590000	     13.94575243610816000000
      0.39100000000000001000	      0.26020077115282181000	      0.84191416894224669000	     -0.27010032722286315000	     -3.80100810722521710000	      2.41344513284929670000	     -4.08673635110154620000	      4.11802952165100860000	     -7.32335653983121750000	      0.88655689756498290000	    -49.88365451443721100000	    -22.72449264328339400000	     -0.00000000000000000039	     -0.00000000000000001265	      8.98003605278322680000	      5.74865291795762620000	     -1.81575085475166920000	     -1.79349319311369420000	     -5.73719618676994880000	      0.00000000000000003616	     -0.00000000000000016762	      7.46924186852709050000	     -4.81194670997094590000	     13.95417826745541500000
      0.39200000000000002000	      0.26064560990137531000	      0.84190763906471333000	     -0.27023543816239626000	     -3.79419691764167060000	      2.42032016677279890000	     -4.09150246160112820000	      4.22802882849997360000	     -7.35176896835867130000	      0.92228504426964897000	    -50.08134977381728700000	    -22.88405799723777200000	     -0.00000000000000000011	     -0.00000000000000001930	      8.93590663535370490000	      5.76615198037490460000	     -1.84026191197081680000	     -1.78041603683941770000	     -5.71200628180603060000	      0.00000000000000003806	     -0.00000000000000020338	      7.46072572278586320000	     -4.81693086217343950000	     13.96262911031888300000
      0.39300000000000002000	      0.26108972467223257000	      0.84190097153643395000	     -0.27036965590600875000	     -3.78728697340873840000	      2.42716124091925470000	     -4.09646565354532570000	      4.33814398162308910000	     -7.37990336828802200000	      0.95822911419917844000	    -50.27888229091517000000	    -23.04154321098627600000	      0.00000000000000000081	     -0.00000000000000002501	      8.89159629784212240000	      5.78358629623839790000	     -1.86460500537612720000	     -1.76704507251564860000	     -5.68683150492827850000	      0.00000000000000002752	     -0.00000000000000022600	      7.45217715564045320000	     -4.82185368100687660000	     13.97110644992424300000
      0.39400000000000002000	      0.26153310533541613000	      0.84189418219144707000	     -0.27050295321311418000	     -3.78027448058298840000	      2.43396608813930730000	     -4.10163622717012280000	      4.44837825345067640000	     -7.40774620979845460000	      0.99439955580497041000	    -50.47624468492080800000	    -23.19683555521773100000	      0.00000000000000000261	     -0.00000000000000003145	      8.84709380968007690000	      5.80095372289195590000	     -1.88877100311155300000	     -1.75336972308599060000	     -5.66167289385952350000	      0.00000000000000001609	     -0.00000000000000024599	      7.44358951038993500000	     -4.82671251967369930000	     13.97961142736423000000
      0.39500000000000002000	      0.26197574192730150000	      0.84188728640881272000	     -0.27063530392031282000	     -3.77315579233202980000	      2.44073242638411080000	     -4.10702410996772120000	      4.55873480988306670000	     -7.43528415992639680000	      1.03080636739503850000	    -50.67342938617833400000	    -23.34982387154220600000	      0.00000000000000000474	     -0.00000000000000003939	      8.80238837429011410000	      5.81825211955548220000	     -1.91275089418615930000	     -1.73937988123062030000	     -5.63653145692057840000	     -0.00000000000000000214	     -0.00000000000000022966	      7.43495629817483830000	     -4.83150466171072250000	     13.98814485123040900000
      0.39600000000000002000	      0.26241762465217022000	      0.84188029909867701000	     -0.27076668297721679000	     -3.76592741550669220000	      2.44745795786741120000	     -4.11263884076675980000	      4.66921670561372880000	     -7.46250409235913010000	      1.06745907919081650000	    -50.87042862878167400000	    -23.50039864813569000000	      0.00000000000000000697	     -0.00000000000000004673	      8.75746964677043490000	      5.83547934778538480000	     -1.93653579250595720000	     -1.72506592814876790000	     -5.61140816646943290000	     -0.00000000000000001820	     -0.00000000000000021568	      7.42627120453981600000	     -4.83622732403450420000	     13.99670721484970300000
      0.39700000000000002000	      0.26285874388374941000	      0.84187323468850683000	     -0.27089706648192929000	     -3.75858601722903260000	      2.45414036803100850000	     -4.11848955382641520000	      4.77982687946523030000	     -7.48939309700286240000	      1.10436673546267430000	    -51.06723444316713800000	    -23.64845209536039400000	      0.00000000000000000869	     -0.00000000000000005257	      8.71232775161412580000	      5.85263327161085200000	     -1.96011694104006050000	     -1.71041875262564690000	     -5.58630395715411420000	     -0.00000000000000003080	     -0.00000000000000023146	      7.41752809600379060000	     -4.84087765981535690000	     14.00529871373877600000
      0.39800000000000002000	      0.26329909016669384000	      0.84186610710940135000	     -0.27102643171637325000	     -3.75112843148332640000	      2.46077732450664530000	     -4.12458496292356980000	      4.89056814971856290000	     -7.51593848958924670000	      1.14153787667279880000	    -51.26383864871244400000	    -23.79387822138630400000	      0.00000000000000001153	     -0.00000000000000005709	      8.66695330041737220000	      5.86971175766827800000	     -1.98348571598906400000	     -1.69542977011545100000	     -5.56121972420465480000	     -0.00000000000000005280	     -0.00000000000000022890	      7.40872102661455220000	     -4.84545276135996340000	     14.01391926310453700000
      0.39900000000000002000	      0.26373865421802212000	      0.84185892978248222000	     -0.27115475718146376000	     -3.74355166570983710000	      2.46736647607604190000	     -4.13093334543278700000	      5.00144320943605520000	     -7.54212782132083870000	      1.17898052162530490000	    -51.46023284634219400000	    -23.93657290781417000000	      0.00000000000000001499	     -0.00000000000000006207	      8.62133740957666640000	      5.88671267533512130000	     -2.00663363095431540000	     -1.68009094183798610000	     -5.53615632172653700000	     -0.00000000000000007841	     -0.00000000000000021765	      7.39984424448811050000	     -4.84994966300277850000	     14.02256851538931500000
      0.40000000000000002000	      0.26417742692851937000	      0.84185171560537431000	     -0.27128202263211793000	     -3.73585290740039260000	      2.47390545163032580000	     -4.13754252640027960000	      5.11245462177847280000	     -7.56794888855452720000	      1.21670214962537340000	    -51.65640841114008500000	    -24.07643398529598900000	      0.00000000000000001880	     -0.00000000000000006585	      8.57547171797314790000	      5.90363389686312790000	     -2.02955234111142020000	     -1.66439479388464990000	     -5.51111456103995150000	     -0.00000000000000010380	     -0.00000000000000020964	      7.39089219833277600000	     -4.85436534400500630000	     14.03124587785562800000
      0.40100000000000002000	      0.26461539936424494000	      0.84184447693917552000	     -0.27140820911172708000	     -3.72802953055746090000	      2.48039185912571500000	     -4.14441986285549560000	      5.22360481538039250000	     -7.59338974240857920000	      1.25470968305305930000	    -51.85235648513566500000	    -24.21336130842448900000	      0.00000000000000002319	     -0.00000000000000006883	      8.52934840426217990000	      5.92047329748636390000	     -2.05223364778429000000	     -1.64833443582033130000	     -5.48609521405475590000	     -0.00000000000000013439	     -0.00000000000000019009	      7.38185954383480690000	     -4.85869673123321280000	     14.03995052927403900000
